<?xml version="1.0" encoding="utf-8"?>
<!-- Generator: Adobe Illustrator 23.0.3, SVG Export Plug-In . SVG Version: 6.00 Build 0)  -->
<svg version="1.1" id="Layer_1" xmlns="http://www.w3.org/2000/svg" xmlns:xlink="http://www.w3.org/1999/xlink" x="0px" y="0px"
	 viewBox="0 0 300 1024" style="enable-background:new 0 0 300 1024;" xml:space="preserve">
<style type="text/css">
	.st0{opacity:0.8;fill:#4FC3F7;enable-background:new    ;}
	.st1{opacity:0.8;fill:#81D4FA;enable-background:new    ;}
	.st2{opacity:0.8;fill:#B3E5FC;enable-background:new    ;}
	.st3{opacity:0.8;fill:#E3F2FD;enable-background:new    ;}
	.st4{fill:none;}
</style>
<g>
	<g>
		<polygon class="st0" points="177.3,585.2 219.6,512.1 135.1,512.1 		"/>
		<polygon class="st1" points="177.3,585.2 135.1,512.1 92.9,585.2 		"/>
		<polygon class="st2" points="92.9,585.2 135.1,512.1 50.6,512.1 		"/>
		<polygon class="st3" points="92.9,585.2 50.6,512.1 8.4,585.2 		"/>
		<polygon class="st0" points="219.6,512.1 261.8,438.9 177.3,438.9 		"/>
		<polygon class="st1" points="219.6,512.1 177.3,438.9 135.1,512.1 		"/>
		<polygon class="st0" points="219.6,365.8 300,365.8 300,372.8 261.8,439 		"/>
		<polygon class="st1" points="261.8,438.9 219.6,365.8 177.3,438.9 		"/>
		<polygon class="st2" points="177.3,438.9 219.6,365.8 135.1,365.8 		"/>
		<polygon class="st3" points="177.3,438.9 135.1,365.8 92.9,438.9 		"/>
		<polygon class="st0" points="219.6,658.4 304,658.4 304,658.4 304,658.5 300,665.3 292.1,679 261.8,731.5 261.8,731.5 
			219.6,658.5 		"/>
		<polygon class="st1" points="177.3,731.5 219.5,658.5 219.6,658.4 219.6,658.5 261.8,731.5 261.8,731.5 		"/>
		<polygon class="st2" points="177.3,731.5 219.6,658.4 135.1,658.4 		"/>
		<polygon class="st3" points="177.3,731.5 135.1,658.4 92.9,731.5 		"/>
		<polygon class="st2" points="178.3,731.5 262.8,731.5 220.6,804.7 		"/>
		<polygon class="st1" points="136.1,804.7 178.3,731.5 220.6,804.7 		"/>
		<polygon class="st2" points="136.1,804.7 178.3,731.5 93.9,731.5 		"/>
		<polygon class="st3" points="136.1,804.7 93.9,731.5 51.6,804.7 		"/>
		<polygon class="st0" points="219.6,365.8 261.8,292.7 177.3,292.7 		"/>
		<polygon class="st1" points="219.6,365.8 177.3,292.7 135.1,365.8 		"/>
		<polygon class="st2" points="135.1,365.8 177.3,292.7 92.9,292.7 		"/>
		<polygon class="st3" points="135.1,365.8 92.9,292.7 50.6,365.8 		"/>
		<polygon class="st0" points="219,219.5 300,219.5 300,225.5 261.2,292.7 219.3,220 219.3,220 		"/>
		<polygon class="st1" points="261,292.7 218.8,219.5 176.6,292.7 		"/>
		<polygon class="st0" points="262,146.4 300,146.4 300,212.3 		"/>
		<polygon class="st1" points="219.7,219.5 262,146.4 300,212.3 300,219.5 		"/>
		<polygon class="st3" points="219.7,219.5 177.5,146.4 135.3,219.5 		"/>
		<polygon class="st3" points="263.5,146.4 300,83.2 300,146.4 		"/>
		<polygon class="st2" points="261.8,0.1 300,0.1 300,66.3 		"/>
		<polygon class="st3" points="219.6,73.2 261.8,0.1 300,66.3 300,73.2 		"/>
		<polygon class="st4" points="305,804.7 389.5,804.7 347.2,877.8 		"/>
		<polygon class="st1" points="262.8,877.8 300,813.3 300,877.8 		"/>
		<polygon class="st2" points="220.6,804.7 300,804.7 300,813.3 262.8,877.8 		"/>
		<polygon class="st3" points="262.8,877.8 220.6,804.7 178.3,877.8 		"/>
		<polygon class="st0" points="262.8,877.8 300,877.8 300,942.3 		"/>
		<polygon class="st1" points="220.6,950.9 262.8,877.8 300,942.3 300,950.9 		"/>
		<polygon class="st2" points="220.6,950.9 262.8,877.8 178.3,877.8 		"/>
		<polygon class="st3" points="220.6,950.9 178.3,877.8 136.1,950.9 		"/>
		<polygon class="st1" points="219.6,512.1 261.8,439 300,505.1 300,512.1 		"/>
		<polygon class="st0" points="219.6,512.1 300,512.1 300,519 261.8,585.2 		"/>
		<polygon class="st1" points="261.8,439 300,372.8 300,439 		"/>
		<polygon class="st0" points="261.8,439 300,439 300,505.1 		"/>
		<polygon class="st1" points="219.6,658.4 261.7,585.4 261.8,585.2 261.8,585.3 261.9,585.4 300,651.4 304,658.4 		"/>
		<polygon class="st1" points="261.8,585.4 261.8,585.3 300,519.2 300,585.4 		"/>
		<polygon class="st0" points="261.8,585.4 300,585.4 300,651.4 304,658.4 304,658.5 304,658.5 304,658.5 304,658.4 303.9,658.4 
			300,651.6 		"/>
		<polygon class="st0" points="261.8,292.7 300,292.7 300,358.9 		"/>
		<polygon class="st1" points="219.6,365.8 261.8,292.7 300,358.9 300,365.8 		"/>
		<polygon class="st1" points="261.2,292.7 300,225.5 300,292.7 		"/>
		<polygon class="st0" points="262.8,731.5 300,731.5 300,796 		"/>
		<polygon class="st1" points="220.6,804.7 262.8,731.5 300,796 300,804.7 		"/>
		<polygon class="st1" points="304,658.5 304,658.5 304,658.4 304,658.4 		"/>
		<polygon class="st1" points="261.8,731.5 261.8,731.5 292.1,679 300,665.3 300,731.5 		"/>
		<polygon class="st2" points="178.3,1024.1 220.6,950.9 136.1,950.9 		"/>
		<polygon class="st3" points="178.3,1024.1 136.1,950.9 93.9,1024.1 		"/>
		<polygon class="st2" points="177.3,292.7 219.6,219.5 135.1,219.5 		"/>
		<polygon class="st2" points="219.6,658.5 261.8,585.4 177.3,585.4 		"/>
	</g>
	<polygon class="st4" points="300,651.4 300,585.4 346.2,585.4 304,658.5 304,658.4 	"/>
	<polygon class="st4" points="300,731.5 300,665.3 304,658.5 304,658.5 304,658.5 346.2,731.5 	"/>
	<polygon class="st4" points="304,658.4 304,658.5 304,658.5 304,658.5 300,665.3 300,651.4 	"/>
	<polygon class="st4" points="300,796 300,731.5 347.2,731.5 305,804.7 	"/>
	<polygon class="st4" points="300,877.8 300,813.3 305,804.7 347.2,877.8 	"/>
	<polygon class="st4" points="300,813.3 300,804.7 305,804.7 	"/>
	<polygon class="st4" points="300,804.7 300,796 305,804.7 	"/>
	<polygon class="st4" points="300,942.3 300,877.8 347.2,877.8 305,950.9 	"/>
	<polygon class="st4" points="300,950.9 300,942.3 305,950.9 	"/>
	<polygon class="st4" points="300,585.4 300,519.2 304,512.2 346.2,585.4 	"/>
	<polygon class="st4" points="300,505.1 300,439 346.2,439 304,512.1 	"/>
	<polygon class="st4" points="300,512.1 300,505.1 304,512.1 	"/>
	<polygon class="st4" points="300,519 300,512.1 304,512.1 	"/>
	<polygon class="st4" points="300,439 300,372.8 304,365.8 346.2,439 	"/>
	<polygon class="st4" points="300,358.9 300,292.7 346.2,292.7 304,365.8 	"/>
	<polygon class="st4" points="300,372.8 300,365.8 304,365.8 	"/>
	<polygon class="st4" points="300,365.8 300,358.9 304,365.8 	"/>
	<polygon class="st4" points="300,292.7 300,225.5 303.5,219.5 345.7,292.7 	"/>
	<polygon class="st4" points="300,212.3 300,146.4 346.4,146.4 304.2,219.5 	"/>
	<polygon class="st4" points="300,225.5 300,219.5 303.5,219.5 	"/>
	<polygon class="st4" points="300,219.5 300,212.3 304.2,219.5 	"/>
	<polygon class="st4" points="300,66.3 300,0.1 346.2,0.1 304,73.2 	"/>
	<polygon class="st4" points="300,73.2 300,66.3 304,73.2 	"/>
	<polygon class="st4" points="304,73.2 346.2,0.1 388.5,73.2 	"/>
	<polygon class="st4" points="300,146.4 300,83.2 305.8,73.2 348,146.4 	"/>
	<polygon class="st4" points="305.8,73.2 300,83.2 300,73.2 	"/>
	<polygon class="st4" points="305.8,73.2 390.2,73.2 348,146.4 	"/>
	<polygon class="st4" points="348,146.4 390.2,73.2 432.4,146.4 	"/>
	<polygon class="st4" points="390.2,73.2 474.7,73.2 432.4,146.4 	"/>
	<polygon class="st4" points="346.2,0.1 430.7,0.1 388.5,73.2 	"/>
	<polygon class="st4" points="305,950.9 347.2,877.8 305,804.7 347.2,731.5 346.2,731.5 304,658.5 346.2,585.4 304,512.2 300,519.2 
		300,519 304,512.1 346.2,439 304,365.8 346.2,292.7 345.7,292.7 303.5,219.5 304.2,219.5 346.4,146.4 432.4,146.4 474.7,73.2 
		388.5,73.2 430.7,0.1 300,0.1 300,-74.9 659,-74.9 659,1115.1 300,1115.1 300,950.9 	"/>
</g>
</svg>
