<?xml version="1.0" encoding="utf-8"?>
<!-- Generator: Adobe Illustrator 22.0.1, SVG Export Plug-In . SVG Version: 6.00 Build 0)  -->
<svg version="1.1" id="Layer_1" xmlns="http://www.w3.org/2000/svg" xmlns:xlink="http://www.w3.org/1999/xlink" x="0px" y="0px"
	 viewBox="0 0 300 1024" style="enable-background:new 0 0 300 1024;" xml:space="preserve">
<style type="text/css">
	.st0{opacity:0.8;fill:#4FC3F7;enable-background:new    ;}
	.st1{opacity:0.8;fill:#81D4FA;enable-background:new    ;}
	.st2{opacity:0.8;fill:#B3E5FC;enable-background:new    ;}
	.st3{opacity:0.8;fill:#E3F2FD;enable-background:new    ;}
	.st4{fill:none;}
</style>
<g>
	<g>
		<polygon class="st0" points="122.7,438.9 80.4,512 164.9,512 		"/>
		<polygon class="st1" points="122.7,438.9 164.9,512 207.1,438.9 		"/>
		<polygon class="st2" points="207.1,438.9 164.9,512 249.4,512 		"/>
		<polygon class="st3" points="207.1,438.9 249.4,512 291.6,438.9 		"/>
		<polygon class="st0" points="80.4,512 38.2,585.2 122.7,585.2 		"/>
		<polygon class="st1" points="80.4,512 122.7,585.2 164.9,512 		"/>
		<polygon class="st0" points="80.4,658.3 0,658.3 0,651.3 38.2,585.1 		"/>
		<polygon class="st1" points="38.2,585.2 80.4,658.3 122.7,585.2 		"/>
		<polygon class="st2" points="122.7,585.2 80.4,658.3 164.9,658.3 		"/>
		<polygon class="st3" points="122.7,585.2 164.9,658.3 207.1,585.2 		"/>
		<polygon class="st0" points="80.4,365.7 -4,365.7 -4,365.7 -4,365.6 0,358.8 7.9,345.1 38.2,292.6 38.2,292.6 80.4,365.6 		"/>
		<polygon class="st1" points="122.7,292.6 80.5,365.6 80.4,365.7 80.4,365.6 38.2,292.6 38.2,292.6 		"/>
		<polygon class="st2" points="122.7,292.6 80.4,365.7 164.9,365.7 		"/>
		<polygon class="st3" points="122.7,292.6 164.9,365.7 207.1,292.6 		"/>
		<polygon class="st2" points="121.7,292.6 37.2,292.6 79.4,219.4 		"/>
		<polygon class="st1" points="163.9,219.4 121.7,292.6 79.4,219.4 		"/>
		<polygon class="st2" points="163.9,219.4 121.7,292.6 206.1,292.6 		"/>
		<polygon class="st3" points="163.9,219.4 206.1,292.6 248.4,219.4 		"/>
		<polygon class="st0" points="80.4,658.3 38.2,731.4 122.7,731.4 		"/>
		<polygon class="st1" points="80.4,658.3 122.7,731.4 164.9,658.3 		"/>
		<polygon class="st2" points="164.9,658.3 122.7,731.4 207.1,731.4 		"/>
		<polygon class="st3" points="164.9,658.3 207.1,731.4 249.4,658.3 		"/>
		<polygon class="st0" points="81,804.6 0,804.6 0,798.6 38.8,731.4 80.7,804.1 80.7,804.1 		"/>
		<polygon class="st1" points="39,731.4 81.2,804.6 123.4,731.4 		"/>
		<polygon class="st0" points="38,877.7 0,877.7 0,811.8 		"/>
		<polygon class="st1" points="80.3,804.6 38,877.7 0,811.8 0,804.6 		"/>
		<polygon class="st3" points="80.3,804.6 122.5,877.7 164.7,804.6 		"/>
		<polygon class="st3" points="36.5,877.7 0,940.9 0,877.7 		"/>
		<polygon class="st2" points="38.2,1024 0,1024 0,957.8 		"/>
		<polygon class="st3" points="80.4,950.9 38.2,1024 0,957.8 0,950.9 		"/>
		<polygon class="st4" points="-5,219.4 -89.5,219.4 -47.2,146.3 		"/>
		<polygon class="st1" points="37.2,146.3 0,210.8 0,146.3 		"/>
		<polygon class="st2" points="79.4,219.4 0,219.4 0,210.8 37.2,146.3 		"/>
		<polygon class="st3" points="37.2,146.3 79.4,219.4 121.7,146.3 		"/>
		<polygon class="st0" points="37.2,146.3 0,146.3 0,81.8 		"/>
		<polygon class="st1" points="79.4,73.2 37.2,146.3 0,81.8 0,73.2 		"/>
		<polygon class="st2" points="79.4,73.2 37.2,146.3 121.7,146.3 		"/>
		<polygon class="st3" points="79.4,73.2 121.7,146.3 163.9,73.2 		"/>
		<polygon class="st1" points="80.4,512 38.2,585.1 0,519 0,512 		"/>
		<polygon class="st0" points="80.4,512 0,512 0,505.1 38.2,438.9 		"/>
		<polygon class="st1" points="38.2,585.1 0,651.3 0,585.1 		"/>
		<polygon class="st0" points="38.2,585.1 0,585.1 0,519 		"/>
		<polygon class="st1" points="80.4,365.7 38.3,438.7 38.2,438.9 38.2,438.8 38.1,438.7 0,372.7 -4,365.7 		"/>
		<polygon class="st1" points="38.2,438.7 38.2,438.8 0,504.9 0,438.7 		"/>
		<polygon class="st0" points="38.2,438.7 0,438.7 0,372.7 -4,365.7 -4,365.6 -4,365.6 -4,365.6 -4,365.7 -3.9,365.7 0,372.5 		"/>
		<polygon class="st0" points="38.2,731.4 0,731.4 0,665.2 		"/>
		<polygon class="st1" points="80.4,658.3 38.2,731.4 0,665.2 0,658.3 		"/>
		<polygon class="st1" points="38.8,731.4 0,798.6 0,731.4 		"/>
		<polygon class="st0" points="37.2,292.6 0,292.6 0,228.1 		"/>
		<polygon class="st1" points="79.4,219.4 37.2,292.6 0,228.1 0,219.4 		"/>
		<polygon class="st1" points="-4,365.6 -4,365.6 -4,365.7 -4,365.7 		"/>
		<polygon class="st1" points="38.2,292.6 38.2,292.6 7.9,345.1 0,358.8 0,292.6 		"/>
		<polygon class="st2" points="121.7,0 79.4,73.2 163.9,73.2 		"/>
		<polygon class="st3" points="121.7,0 163.9,73.2 206.1,0 		"/>
		<polygon class="st2" points="122.7,731.4 80.4,804.6 164.9,804.6 		"/>
		<polygon class="st2" points="80.4,365.6 38.2,438.7 122.7,438.7 		"/>
	</g>
	<polygon class="st4" points="0,372.7 0,438.7 -46.2,438.7 -4,365.6 -4,365.7 	"/>
	<polygon class="st4" points="0,292.6 0,358.8 -4,365.6 -4,365.6 -4,365.6 -46.2,292.6 	"/>
	<polygon class="st4" points="-4,365.7 -4,365.6 -4,365.6 -4,365.6 0,358.8 0,372.7 	"/>
	<polygon class="st4" points="0,228.1 0,292.6 -47.2,292.6 -5,219.4 	"/>
	<polygon class="st4" points="0,146.3 0,210.8 -5,219.4 -47.2,146.3 	"/>
	<polygon class="st4" points="0,210.8 0,219.4 -5,219.4 	"/>
	<polygon class="st4" points="0,219.4 0,228.1 -5,219.4 	"/>
	<polygon class="st4" points="0,81.8 0,146.3 -47.2,146.3 -5,73.2 	"/>
	<polygon class="st4" points="0,73.2 0,81.8 -5,73.2 	"/>
	<polygon class="st4" points="0,438.7 0,504.9 -4,511.9 -46.2,438.7 	"/>
	<polygon class="st4" points="0,519 0,585.1 -46.2,585.1 -4,512 	"/>
	<polygon class="st4" points="0,512 0,519 -4,512 	"/>
	<polygon class="st4" points="0,505.1 0,512 -4,512 	"/>
	<polygon class="st4" points="0,585.1 0,651.3 -4,658.3 -46.2,585.1 	"/>
	<polygon class="st4" points="0,665.2 0,731.4 -46.2,731.4 -4,658.3 	"/>
	<polygon class="st4" points="0,651.3 0,658.3 -4,658.3 	"/>
	<polygon class="st4" points="0,658.3 0,665.2 -4,658.3 	"/>
	<polygon class="st4" points="0,731.4 0,798.6 -3.5,804.6 -45.7,731.4 	"/>
	<polygon class="st4" points="0,811.8 0,877.7 -46.4,877.7 -4.2,804.6 	"/>
	<polygon class="st4" points="0,798.6 0,804.6 -3.5,804.6 	"/>
	<polygon class="st4" points="0,804.6 0,811.8 -4.2,804.6 	"/>
	<polygon class="st4" points="0,957.8 0,1024 -46.2,1024 -4,950.9 	"/>
	<polygon class="st4" points="0,950.9 0,957.8 -4,950.9 	"/>
	<polygon class="st4" points="-4,950.9 -46.2,1024 -88.5,950.9 	"/>
	<polygon class="st4" points="0,877.7 0,940.9 -5.8,950.9 -48,877.7 	"/>
	<polygon class="st4" points="-5.8,950.9 0,940.9 0,950.9 	"/>
	<polygon class="st4" points="-5.8,950.9 -90.2,950.9 -48,877.7 	"/>
	<polygon class="st4" points="-48,877.7 -90.2,950.9 -132.4,877.7 	"/>
	<polygon class="st4" points="-90.2,950.9 -174.7,950.9 -132.4,877.7 	"/>
	<polygon class="st4" points="-46.2,1024 -130.7,1024 -88.5,950.9 	"/>
	<polygon class="st4" points="-5,73.2 -47.2,146.3 -5,219.4 -47.2,292.6 -46.2,292.6 -4,365.6 -46.2,438.7 -4,511.9 0,504.9 
		0,505.1 -4,512 -46.2,585.1 -4,658.3 -46.2,731.4 -45.7,731.4 -3.5,804.6 -4.2,804.6 -46.4,877.7 -132.4,877.7 -174.7,950.9 
		-88.5,950.9 -130.7,1024 0,1024 0,1099 -359,1099 -359,-91 0,-91 0,73.2 	"/>
</g>
</svg>
