<svg id="Layer_1" data-name="Layer 1" xmlns="http://www.w3.org/2000/svg" viewBox="0 0 650.58 1190"><defs><style>.cls-1{fill:#4fc3f7;}.cls-1,.cls-2,.cls-3,.cls-4,.cls-5{opacity:0.8;}.cls-2{fill:#81d4fa;}.cls-3{fill:#b3e5fc;}.cls-4{fill:#e3f2fd;}.cls-5,.cls-6{fill:none;}</style></defs><title>side-triangle-bg</title><polygon class="cls-1" points="481.67 529.87 439.44 603.01 523.9 603.01 481.67 529.87"/><polygon class="cls-2" points="481.67 529.87 523.9 603.01 566.13 529.87 481.67 529.87"/><polygon class="cls-3" points="566.13 529.87 523.9 603.01 608.36 603.01 566.13 529.87"/><polygon class="cls-4" points="566.13 529.87 608.36 603.01 650.58 529.87 566.13 529.87"/><polygon class="cls-1" points="439.44 603.01 397.21 676.15 481.67 676.15 439.44 603.01"/><polygon class="cls-2" points="439.44 603.01 481.67 676.15 523.9 603.01 439.44 603.01"/><polygon class="cls-1" points="439.44 749.29 359 749.29 359 742.34 397.21 676.15 439.44 749.29"/><polygon class="cls-2" points="397.21 676.15 439.44 749.29 481.67 676.15 397.21 676.15"/><polygon class="cls-3" points="481.67 676.15 439.44 749.29 523.9 749.29 481.67 676.15"/><polygon class="cls-4" points="481.67 676.15 523.9 749.29 566.13 676.15 481.67 676.15"/><polygon class="cls-1" points="439.44 456.73 359 456.73 359 449.78 366.9 436.1 397.21 383.58 397.22 383.59 439.4 456.65 439.44 456.73"/><polygon class="cls-2" points="481.67 383.58 439.48 456.65 439.44 456.73 439.4 456.65 397.22 383.59 397.21 383.58 481.67 383.58"/><polygon class="cls-3" points="481.67 383.58 439.44 456.73 523.9 456.73 481.67 383.58"/><polygon class="cls-4" points="481.67 383.58 523.9 456.73 566.13 383.58 481.67 383.58"/><polygon class="cls-3" points="480.67 383.58 396.22 383.58 438.44 310.44 480.67 383.58"/><polygon class="cls-2" points="522.9 310.44 480.67 383.58 438.44 310.44 522.9 310.44"/><polygon class="cls-3" points="522.9 310.44 480.67 383.58 565.13 383.58 522.9 310.44"/><polygon class="cls-4" points="522.9 310.44 565.13 383.58 607.36 310.44 522.9 310.44"/><polygon class="cls-1" points="439.44 749.29 397.21 822.43 481.67 822.43 439.44 749.29"/><polygon class="cls-2" points="439.44 749.29 481.67 822.43 523.9 749.29 439.44 749.29"/><polygon class="cls-3" points="523.9 749.29 481.67 822.43 566.13 822.43 523.9 749.29"/><polygon class="cls-4" points="523.9 749.29 566.13 822.43 608.36 749.29 523.9 749.29"/><polygon class="cls-1" points="440.01 895.58 359 895.58 359 889.6 397.78 822.43 439.73 895.08 439.73 895.09 440.01 895.58"/><polygon class="cls-2" points="397.96 822.43 440.18 895.58 482.41 822.43 397.96 822.43"/><polygon class="cls-1" points="397.04 968.72 359 968.72 359 902.84 397.04 968.72"/><polygon class="cls-2" points="439.27 895.58 397.04 968.72 359 902.84 359 895.58 439.27 895.58"/><polygon class="cls-4" points="439.27 895.58 481.49 968.72 523.72 895.58 439.27 895.58"/><polygon class="cls-4" points="395.47 968.72 359 1031.88 359 968.72 395.47 968.72"/><polygon class="cls-3" points="397.21 1115 359 1115 359 1048.81 397.21 1115"/><polygon class="cls-4" points="439.44 1041.86 397.21 1115 359 1048.81 359 1041.86 439.44 1041.86"/><polygon class="cls-5" points="353.99 310.44 269.53 310.44 311.76 237.3 353.99 310.44"/><polygon class="cls-2" points="396.22 237.3 359 301.76 359 237.3 396.22 237.3"/><polygon class="cls-3" points="438.44 310.44 359 310.44 359 301.76 396.22 237.3 438.44 310.44"/><polygon class="cls-4" points="396.22 237.3 438.44 310.44 480.67 237.3 396.22 237.3"/><polygon class="cls-1" points="396.22 237.3 359 237.3 359 172.84 396.22 237.3"/><polygon class="cls-2" points="438.44 164.16 396.22 237.3 359 172.84 359 164.16 438.44 164.16"/><polygon class="cls-3" points="438.44 164.16 396.22 237.3 480.67 237.3 438.44 164.16"/><polygon class="cls-4" points="438.44 164.16 480.67 237.3 522.9 164.16 438.44 164.16"/><polygon class="cls-2" points="439.44 603.01 397.21 676.15 359 609.96 359 603.01 439.44 603.01"/><polygon class="cls-1" points="439.44 603.01 359 603.01 359 596.06 397.21 529.87 439.44 603.01"/><polygon class="cls-2" points="397.21 676.15 359 742.34 359 676.15 397.21 676.15"/><polygon class="cls-1" points="397.21 676.15 359 676.15 359 609.96 397.21 676.15"/><polygon class="cls-2" points="439.44 456.73 397.3 529.72 397.21 529.87 397.17 529.8 397.12 529.72 359 463.68 359 456.73 439.44 456.73"/><polygon class="cls-2" points="397.21 529.72 397.17 529.8 359 595.91 359 529.72 397.21 529.72"/><polygon class="cls-5" points="355.08 456.73 354.99 456.73 355.03 456.66 355.08 456.73"/><polygon class="cls-1" points="397.21 529.72 359 529.72 359 463.53 397.21 529.72"/><polygon class="cls-1" points="397.21 822.43 359 822.43 359 756.24 397.21 822.43"/><polygon class="cls-2" points="439.44 749.29 397.21 822.43 359 756.24 359 749.29 439.44 749.29"/><polygon class="cls-2" points="397.78 822.43 359 889.6 359 822.43 397.78 822.43"/><polygon class="cls-1" points="396.22 383.58 359 383.58 359 319.12 396.22 383.58"/><polygon class="cls-2" points="438.44 310.44 396.22 383.58 359 319.12 359 310.44 438.44 310.44"/><polygon class="cls-2" points="397.22 383.58 397.22 383.59 366.9 436.1 359 449.78 359 383.58 397.22 383.58"/><polygon class="cls-3" points="480.67 91.02 438.44 164.16 522.9 164.16 480.67 91.02"/><polygon class="cls-4" points="480.67 91.02 522.9 164.16 565.13 91.02 480.67 91.02"/><polygon class="cls-3" points="481.67 822.43 439.44 895.58 523.9 895.58 481.67 822.43"/><polygon class="cls-3" points="439.44 456.58 397.21 529.72 481.67 529.72 439.44 456.58"/><polygon class="cls-6" points="359 463.68 359 529.72 312.76 529.72 354.95 456.65 354.99 456.73 359 463.68"/><polygon class="cls-6" points="359 383.58 359 449.78 355.03 456.65 354.99 456.58 354.95 456.65 312.76 383.58 359 383.58"/><polygon class="cls-6" points="354.99 456.73 354.95 456.65 354.99 456.58 355.03 456.65 359 449.78 359 463.68 354.99 456.73"/><polygon class="cls-6" points="359 319.12 359 383.58 311.76 383.58 353.99 310.44 359 319.12"/><polygon class="cls-6" points="359 237.3 359 301.76 353.99 310.44 311.76 237.3 359 237.3"/><polygon class="cls-6" points="359 301.76 359 310.44 353.99 310.44 359 301.76"/><polygon class="cls-6" points="359 310.44 359 319.12 353.99 310.44 359 310.44"/><polygon class="cls-6" points="359 172.84 359 237.3 311.76 237.3 353.99 164.16 359 172.84"/><polygon class="cls-6" points="359 164.16 359 172.84 353.99 164.16 359 164.16"/><polygon class="cls-6" points="359 529.72 359 595.91 354.99 602.86 312.76 529.72 359 529.72"/><polygon class="cls-6" points="359 609.96 359 676.15 312.76 676.15 354.99 603.01 359 609.96"/><polygon class="cls-6" points="359 603.01 359 609.96 354.99 603.01 359 603.01"/><polygon class="cls-6" points="359 596.06 359 603.01 354.99 603.01 359 596.06"/><polygon class="cls-6" points="359 676.15 359 742.34 354.99 749.29 312.76 676.15 359 676.15"/><polygon class="cls-6" points="359 756.24 359 822.43 312.76 822.43 354.99 749.29 359 756.24"/><polygon class="cls-6" points="359 742.34 359 749.29 354.99 749.29 359 742.34"/><polygon class="cls-6" points="359 749.29 359 756.24 354.99 749.29 359 749.29"/><polygon class="cls-6" points="359 822.43 359 889.6 355.55 895.58 313.32 822.43 359 822.43"/><polygon class="cls-6" points="359 902.84 359 968.72 312.58 968.72 354.81 895.58 359 902.84"/><polygon class="cls-6" points="359 889.6 359 895.58 355.55 895.58 359 889.6"/><polygon class="cls-6" points="359 895.58 359 902.84 354.81 895.58 359 895.58"/><polygon class="cls-6" points="359 1048.81 359 1115 312.76 1115 354.99 1041.86 359 1048.81"/><polygon class="cls-6" points="359 1041.86 359 1048.81 354.99 1041.86 359 1041.86"/><polygon class="cls-6" points="354.99 1041.86 312.76 1115 270.53 1041.86 354.99 1041.86"/><polygon class="cls-6" points="359 968.72 359 1031.88 353.24 1041.86 311.02 968.72 359 968.72"/><polygon class="cls-6" points="353.24 1041.86 359 1031.88 359 1041.86 353.24 1041.86"/><polygon class="cls-6" points="353.24 1041.86 268.79 1041.86 311.02 968.72 353.24 1041.86"/><polygon class="cls-6" points="311.02 968.72 268.79 1041.86 226.56 968.72 311.02 968.72"/><polygon class="cls-6" points="268.79 1041.86 184.33 1041.86 226.56 968.72 268.79 1041.86"/><polygon class="cls-6" points="312.76 1115 228.3 1115 270.53 1041.86 312.76 1115"/><polygon class="cls-6" points="353.99 164.16 311.76 237.3 353.99 310.44 311.76 383.58 312.76 383.58 354.95 456.65 312.76 529.72 354.99 602.86 359 595.91 359 596.06 354.99 603.01 312.76 676.15 354.99 749.29 312.76 822.43 313.32 822.43 355.55 895.58 354.81 895.58 312.58 968.72 226.56 968.72 184.33 1041.86 270.53 1041.86 228.3 1115 359 1115 359 1190 0 1190 0 0 359 0 359 164.16 353.99 164.16"/><polygon class="cls-6" points="359 456.73 359 463.53 355.08 456.73 359 456.73"/><polygon class="cls-6" points="359 463.53 359 463.68 354.99 456.73 355.08 456.73 359 463.53"/><polygon class="cls-6" points="359 449.78 359 456.73 355.08 456.73 355.03 456.66 355.03 456.65 359 449.78"/><polygon class="cls-6" points="355.03 456.65 355.03 456.66 354.99 456.73 354.95 456.65 354.99 456.58 355.03 456.65"/><polygon class="cls-6" points="354.99 456.58 354.95 456.65 354.99 456.73 359 463.68 359 467.29 349.42 467.29 349.42 446.08 359 446.08 359 449.78 355.03 456.65 354.99 456.58"/></svg>