<svg id="Layer_1" data-name="Layer 1" xmlns="http://www.w3.org/2000/svg" viewBox="0 0 1023.33 342.31"><defs><style>.cls-1{opacity:0.99;}.cls-2{fill:#607d8b;}.cls-3{fill:#ffb74d;}.cls-4{fill:#ff9800;}.cls-5{fill:#ffa726;}.cls-6{fill:#fb8c00;}</style></defs><title>arrow</title><g class="cls-1"><polygon class="cls-2" points="140.99 32 527.67 342.31 527.67 217.35 140.99 32"/><polygon class="cls-2" points="140.99 32 32 32 527.67 342.31 140.99 32"/><polygon class="cls-2" points="914.34 32 527.67 342.31 527.67 217.35 914.34 32"/><polygon class="cls-2" points="914.34 32 1023.33 32 527.67 342.31 914.34 32"/><polygon class="cls-3" points="108.99 0 495.67 310.31 495.67 185.35 108.99 0"/><polygon class="cls-4" points="108.99 0 0 0 495.67 310.31 108.99 0"/><polygon class="cls-5" points="882.34 0 495.67 310.31 495.67 185.35 882.34 0"/><polygon class="cls-6" points="882.34 0 991.33 0 495.67 310.31 882.34 0"/></g></svg>