<svg id="Layer_2" data-name="Layer 2" xmlns="http://www.w3.org/2000/svg" viewBox="0 0 753.12 1023"><defs><style>.cls-1{fill:#607d8b;}.cls-2{fill:#ff8a65;}.cls-3{fill:#e0e0e0;}.cls-4{fill:#ff7043;}.cls-5{fill:#ff5722;}.cls-6{fill:#ffab91;}.cls-7{fill:#eee;}.cls-8{fill:#424242;}</style></defs><title>logo-fox</title><polygon class="cls-1" points="539.19 244.47 393.65 155.28 315.42 155.28 315.42 517.49 360.83 557.43 539.19 244.47"/><polygon class="cls-1" points="539.19 244.43 598.83 373.33 360.83 556.84 539.19 244.43"/><polygon class="cls-1" points="539.19 244.43 543.4 32 464.6 198.69 539.19 244.43"/><polygon class="cls-1" points="543.57 32.14 393.65 155.25 464.77 198.83 543.57 32.14"/><polygon class="cls-1" points="315.42 845.73 498.15 450.96 360.86 557.06 315.42 591.02 315.42 845.73"/><polygon class="cls-1" points="91.64 244.43 237.18 155.25 315.42 155.25 315.42 517.45 270 557.39 91.64 244.43"/><polygon class="cls-1" points="91.64 244.43 32 373.55 270 557.39 91.64 244.43"/><polygon class="cls-1" points="91.64 244.43 87.26 32.14 166.06 198.83 91.64 244.43"/><polygon class="cls-1" points="87.26 32.14 237.18 155.25 166.06 198.83 87.26 32.14"/><polygon class="cls-1" points="315.42 845.73 132.8 451.41 270 557.39 315.42 591.31 315.42 845.73"/><polygon class="cls-1" points="315.42 845.73 690.75 610.12 498.03 451.2 315.42 845.73"/><polygon class="cls-1" points="315.42 845.73 329.64 1023 181.37 947.5 315.42 845.73"/><polygon class="cls-1" points="329.64 1023 690.75 609.91 315.42 845.73 329.64 1023"/><polygon class="cls-1" points="329.64 1023 645.88 973.21 753.12 822.75 690.75 609.91 329.64 1023"/><polygon class="cls-1" points="270 557.39 315.42 517.45 360.83 556.84 315.42 591.31 270 557.39"/><polygon class="cls-2" points="507.19 212.47 361.65 123.28 283.42 123.28 283.42 485.49 328.83 525.43 507.19 212.47"/><polygon class="cls-3" points="507.19 212.43 566.83 341.33 328.83 524.84 507.19 212.43"/><polygon class="cls-4" points="507.19 212.43 511.4 0 432.6 166.69 507.19 212.43"/><polygon class="cls-5" points="511.57 0.14 361.65 123.25 432.77 166.83 511.57 0.14"/><polygon class="cls-4" points="283.42 813.73 466.15 418.96 328.86 525.06 283.42 559.02 283.42 813.73"/><polygon class="cls-6" points="59.64 212.43 205.18 123.25 283.42 123.25 283.42 485.45 238 525.39 59.64 212.43"/><polygon class="cls-7" points="59.64 212.43 0 341.55 238 525.39 59.64 212.43"/><polygon class="cls-2" points="59.64 212.43 55.26 0.14 134.06 166.83 59.64 212.43"/><polygon class="cls-5" points="55.26 0.14 205.18 123.25 134.06 166.83 55.26 0.14"/><polygon class="cls-3" points="283.42 813.73 100.8 419.41 238 525.39 283.42 559.31 283.42 813.73"/><polygon class="cls-5" points="283.42 813.73 658.75 578.12 466.03 419.2 283.42 813.73"/><polygon class="cls-6" points="283.42 813.73 297.64 991 149.37 915.5 283.42 813.73"/><polygon class="cls-4" points="297.64 991 658.75 577.91 283.42 813.73 297.64 991"/><polygon class="cls-2" points="297.64 991 613.88 941.21 721.12 790.75 658.75 577.91 297.64 991"/><polygon class="cls-8" points="238 525.39 283.42 485.45 328.83 524.84 283.42 559.31 238 525.39"/></svg>