<svg id="Layer_1" data-name="Layer 1" xmlns="http://www.w3.org/2000/svg" viewBox="0 0 931.37 1022"><defs><style>.cls-1{fill:#607d8b;}.cls-2{fill:#fefefe;}.cls-3{fill:#ff711f;}.cls-4{fill:#ff941f;}.cls-5{fill:#ffaa1f;}.cls-6{fill:#ffb61f;}.cls-7{fill:#ffca1f;}.cls-8{fill:#ffdb1f;}.cls-9{fill:#ff9c1f;}.cls-10{fill:#ffb74d;}.cls-11{fill:#ffa726;}.cls-12{fill:#ff9800;}.cls-13{fill:#fb8c00;}</style></defs><title>search</title><polygon class="cls-1" points="927.88 160.98 931.37 384.08 777.99 568.83 554.89 607.18 391.05 478.2 384.08 255.1 537.46 70.34 764.04 32 927.88 160.98"/><polygon class="cls-1" points="931.37 384.08 666.44 540.94 777.99 568.83 931.37 384.08"/><polygon class="cls-1" points="777.99 568.83 927.88 160.98 931.37 384.08 777.99 568.83"/><polygon class="cls-1" points="764.04 32 931.37 384.08 927.88 160.98 764.04 32"/><polygon class="cls-1" points="537.46 70.34 927.88 160.98 764.04 32 537.46 70.34"/><polygon class="cls-1" points="384.08 255.1 764.04 32 537.46 70.34 384.08 255.1"/><polygon class="cls-1" points="391.05 478.2 537.46 70.34 384.08 255.1 391.05 478.2"/><path class="cls-1" d="M227.21,255.1"/><polygon class="cls-1" points="554.89 607.18 384.08 255.1 391.05 478.2 554.89 607.18"/><polygon class="cls-1" points="666.44 540.94 554.89 607.18 777.99 568.83 666.44 540.94"/><polygon class="cls-1" points="391.05 478.2 554.89 607.18 666.44 540.94 391.05 478.2"/><polygon class="cls-1" points="554.89 607.18 411.97 743.13 391.05 478.2 554.89 607.18"/><polygon class="cls-1" points="411.97 743.13 188.87 771.01 391.05 478.2 411.97 743.13"/><polygon class="cls-1" points="147.04 1022 188.87 771.01 411.97 743.13 147.04 1022"/><polygon class="cls-1" points="188.87 771.01 32 1022 147.04 1022 188.87 771.01"/><polygon class="cls-2" points="895.88 128.98 899.37 352.08 745.99 536.83 522.89 575.18 359.05 446.2 352.08 223.1 505.46 38.34 732.04 0 895.88 128.98"/><polygon class="cls-3" points="899.37 352.08 634.44 508.94 745.99 536.83 899.37 352.08"/><polygon class="cls-4" points="745.99 536.83 895.88 128.98 899.37 352.08 745.99 536.83"/><polygon class="cls-5" points="732.04 0 899.37 352.08 895.88 128.98 732.04 0"/><polygon class="cls-6" points="505.46 38.34 895.88 128.98 732.04 0 505.46 38.34"/><polygon class="cls-7" points="352.08 223.1 732.04 0 505.46 38.34 352.08 223.1"/><polygon class="cls-8" points="359.05 446.2 505.46 38.34 352.08 223.1 359.05 446.2"/><path class="cls-8" d="M195.21,223.1"/><polygon class="cls-6" points="522.89 575.18 352.08 223.1 359.05 446.2 522.89 575.18"/><polygon class="cls-3" points="634.44 508.94 522.89 575.18 745.99 536.83 634.44 508.94"/><polygon class="cls-9" points="359.05 446.2 522.89 575.18 634.44 508.94 359.05 446.2"/><polygon class="cls-10" points="522.89 575.18 379.97 711.13 359.05 446.2 522.89 575.18"/><polygon class="cls-11" points="379.97 711.13 156.87 739.01 359.05 446.2 379.97 711.13"/><polygon class="cls-12" points="115.04 990 156.87 739.01 379.97 711.13 115.04 990"/><polygon class="cls-13" points="156.87 739.01 0 990 115.04 990 156.87 739.01"/></svg>